<?xml version="1.0" encoding="utf-8"?>
<!-- Generator: Adobe Illustrator 19.0.1, SVG Export Plug-In . SVG Version: 6.00 Build 0)  -->
<svg version="1.1" id="Ebene_1" xmlns="http://www.w3.org/2000/svg" xmlns:xlink="http://www.w3.org/1999/xlink" x="0px" y="0px"
	 viewBox="0 0 430 159.9" enable-background="new 0 0 430 159.9" xml:space="preserve">
<g>
	<path fill="#888888" d="M59.2,10.6c-10,10-20.3,22-24.2,28.3c-0.9,1.5-2.4,3.1-3.1,3.5c-0.7,0.4-1.4,1.3-1.4,1.8
		c0,0.5-1.2,3.5-2.6,6.4c-3.3,6.9-3.3,8.9-0.2,11.5c2.2,1.9,2.7,2,8,1.7c6.3-0.4,10.3-2,22.3-9.2c9.1-5.4,17.9-10,19.1-10
		c3.7,0,0.3,8.4-9.1,22.7c-3,4.5-8.7,12.5-12.9,17.8c-4.1,5.3-15.3,20-24.9,32.7c-9.6,12.7-20.1,26.4-23.4,30.5
		c-6,7.5-7.5,10.3-6.2,11.6c0.5,0.5,3.2-2.3,7.7-7.9c10.4-12.8,11.8-14.6,20.1-26c4.2-5.7,8.5-11.6,9.7-13
		c10.4-13.1,16-20.3,25.7-33.1c6.2-8.2,12.3-15.9,13.6-17.1l2.4-2.2l-0.4,2.3c-0.2,1.3-2,6.5-3.8,11.6c-3.6,9.8-4.2,14.1-2.3,14.9
		c1.8,0.7,3.6-0.6,5.9-4.1c1.2-1.7,3.3-5.1,4.8-7.3c1.5-2.2,3.6-5.7,4.8-7.6c1.1-1.9,2.4-3.3,2.8-3.1c0.4,0.3,0.6,3,0.3,6.9
		c-0.4,5.9-0.3,6.6,1.1,8.1c1.9,2,4.5,2.7,7.2,2.1c1.2-0.3,5.1-3.6,9.4-7.9c4-4.1,7.5-7.3,7.7-7.1c0.2,0.2-0.2,3.3-0.8,6.9
		c-1.6,9.2-0.6,12,4,11.4c1.6-0.2,5.4-4.2,9.4-10c4.3-6.2,5.8-7.2,4.9-3c-2,9.7,2.1,13.9,10,10.2c3.3-1.5,11.5-9.1,11-10
		c-0.8-1.3-2.5-0.6-6.6,2.7c-2.3,1.9-5.3,3.9-6.7,4.5c-2.3,1-2.7,1-3.8-0.1c-1.4-1.4-1.4-1.6-0.3-8.9c0.7-4.8,0.7-5.8-0.3-6.8
		c-2-2-3.9-0.4-9.8,8c-9,12.8-10.5,12.6-7.8-1c0.9-4.7,1.5-9,1.2-9.7c-1-2.5-3.7-1.2-8.9,4.5c-11.3,12.3-14.3,14.4-16.7,12
		c-0.5-0.5-0.9-2.7-0.9-4.8c0-4.2,0.4-4.9,5.2-7.9c3.8-2.4,6-6.7,5.8-11.3c-0.2-3.3-0.4-3.7-1.9-4c-2.2-0.3-4.7,2-7.8,7.1
		c-2.6,4.3-2.9,4.5-4.3,2.8c-1.7-2-2.7-1.2-5.4,4.3c-2.7,5.5-9.4,15.5-9.4,14.1c0-0.4,0.7-2.8,1.6-5.1c0.9-2.4,2.1-6.4,2.9-8.8
		c0.7-2.4,2.4-6.9,3.6-9.9c1.3-3,2.3-5.8,2.3-6.1c0-1.6-2.3-1.5-4.6,0.2c-2.2,1.5-2.3,1.6-1.8,0.3c1.4-3.5,1.4-7.5,0.1-8.8
		c-2.9-2.9-7.2-1.2-25,9.4c-13.8,8.2-21.8,10.8-25.6,8.3c-2.3-1.5-2.1-3.8,1-9c1.6-2.6,3-3.8,6.5-5.5c7.7-3.7,27.1-21.9,33-31.1
		C76.6,5.7,77,0,72,0C70.1,0,68.1,1.6,59.2,10.6L59.2,10.6z M72,5.6c0,3.8-10.6,16.5-22.8,27.5c-7.7,6.9-11.4,9.3-11.4,7.5
		c0-1.8,15.2-20,23.6-28.2C69.1,4.9,72,3.1,72,5.6L72,5.6z M101.4,61.6c-1.1,1.7-2.4,3-3,3c-0.6,0-1.1-0.1-1.1-0.2
		c0-0.9,2.4-4.9,3.9-6.5C103.7,55.3,103.9,57.8,101.4,61.6L101.4,61.6z"/>
</g>
<g>
	<path fill="none" d="M238.1,68.7c0,2.7-0.5,5.3-1.6,7.7c-1,2.4-2.5,4.5-4.3,6.3c-1.8,1.8-3.9,3.2-6.3,4.3c-2.4,1-5,1.6-7.7,1.6
		h-35.7V11.9h34.8c2.7,0,5.1,0.6,7.2,1.7c2.2,1.2,4,2.6,5.5,4.5c1.5,1.8,2.7,3.9,3.5,6.3c0.8,2.3,1.2,4.7,1.2,7.1
		c0,3.9-1,7.5-3,10.7c-2,3.2-4.7,5.6-8.1,7.1c2.2,0.6,4.1,1.6,5.9,2.9c1.8,1.3,3.3,2.8,4.5,4.5c1.3,1.7,2.2,3.6,2.9,5.7
		C237.8,64.4,238.1,66.5,238.1,68.7z M186.3,15.4v32.9H216c2.2,0,4.3-0.5,6.1-1.4c1.8-0.9,3.4-2.2,4.8-3.7c1.4-1.5,2.4-3.3,3.2-5.2
		c0.8-1.9,1.1-4,1.1-6.1c0-2.2-0.4-4.2-1.1-6.2c-0.7-2-1.7-3.7-3-5.2c-1.3-1.5-2.8-2.7-4.6-3.6c-1.8-0.9-3.7-1.4-5.9-1.4H186.3z
		 M234.4,68.4c0-2.2-0.4-4.3-1.1-6.3c-0.8-2.1-1.8-3.9-3.2-5.4c-1.4-1.5-3-2.8-4.9-3.7c-1.9-0.9-3.9-1.4-6.2-1.4h-32.7v33.6h32
		c2.2,0,4.3-0.5,6.3-1.4c2-0.9,3.7-2.2,5.1-3.8c1.4-1.6,2.6-3.4,3.4-5.4C233.9,72.6,234.4,70.5,234.4,68.4z"/>
	<path fill="#FFFFFF" d="M244.2,45.5V40h2.2v5.4H244.2z M244.2,87.3V53.6h2.2v33.7H244.2z"/>
	<path fill="#FFFFFF" d="M267.1,88c-2.6,0-5-0.4-7.3-1.3c-2.2-0.9-4.2-2.2-6-4l1.2-1.5c1.8,1.6,3.7,2.9,5.6,3.7
		c1.9,0.8,4,1.2,6.4,1.2c3.2,0,5.7-0.7,7.6-2c1.9-1.3,2.9-3.2,2.9-5.6c0-1.1-0.2-2.1-0.7-2.8c-0.5-0.8-1.2-1.4-2.2-1.9
		c-1-0.5-2.1-1-3.5-1.4c-1.4-0.4-3-0.8-4.8-1.3c-1.9-0.4-3.5-0.9-4.8-1.3c-1.4-0.4-2.5-0.9-3.4-1.5c-0.9-0.6-1.6-1.3-2-2.1
		c-0.4-0.9-0.6-2-0.6-3.3c0-1.7,0.3-3.1,1-4.3c0.6-1.2,1.5-2.2,2.6-3c1.1-0.8,2.4-1.4,3.8-1.8c1.4-0.4,3-0.6,4.6-0.6
		c2.7,0,5.1,0.5,7,1.4c2,0.9,3.4,2.1,4.3,3.4l-1.5,1.1c-1-1.3-2.3-2.3-4.2-3c-1.8-0.7-3.8-1-5.9-1c-1.3,0-2.6,0.1-3.8,0.4
		c-1.2,0.3-2.2,0.7-3.1,1.4c-0.9,0.6-1.6,1.4-2.1,2.4c-0.5,1-0.8,2.1-0.8,3.4c0,1,0.2,1.9,0.5,2.6c0.3,0.7,0.9,1.3,1.7,1.7
		c0.8,0.5,1.7,0.8,2.9,1.2c1.1,0.3,2.5,0.7,4.2,1.1c2.1,0.5,3.9,1,5.5,1.4c1.6,0.5,3,1,4.1,1.7c1.1,0.6,2,1.4,2.6,2.4
		c0.6,1,0.9,2.2,0.9,3.6c0,1.5-0.3,2.9-0.9,4.1c-0.6,1.2-1.5,2.2-2.6,3.1c-1.1,0.9-2.4,1.5-4,2C270.7,87.7,269,88,267.1,88z"/>
	<path fill="#FFFFFF" d="M285.3,70.3c0-2.4,0.4-4.7,1.2-6.8c0.8-2.1,2-3.9,3.4-5.5c1.5-1.6,3.2-2.8,5.2-3.7c2-0.9,4.2-1.3,6.5-1.3
		c2.9,0,5.5,0.7,7.8,2c2.3,1.4,4,3.2,5.2,5.6l-2.2,0.8c-1-2-2.5-3.5-4.5-4.7c-2-1.1-4.1-1.7-6.4-1.7c-1.9,0-3.8,0.4-5.5,1.2
		c-1.7,0.8-3.2,1.8-4.5,3.2c-1.3,1.4-2.3,3-3,4.8c-0.7,1.9-1.1,3.8-1.1,6c0,2.1,0.4,4.1,1.1,6c0.8,1.9,1.8,3.5,3,5
		c1.3,1.4,2.8,2.5,4.5,3.4c1.7,0.8,3.5,1.2,5.4,1.2c1.3,0,2.5-0.2,3.7-0.6c1.2-0.4,2.4-0.9,3.4-1.5c1-0.6,1.9-1.3,2.7-2.1
		c0.8-0.8,1.3-1.7,1.5-2.6l2.1,0.6c-0.4,1.2-1,2.2-1.9,3.2c-0.9,1-1.9,1.8-3.1,2.6c-1.2,0.7-2.5,1.3-3.9,1.7s-2.9,0.6-4.4,0.6
		c-2.3,0-4.4-0.5-6.4-1.4c-2-0.9-3.7-2.2-5.2-3.8c-1.5-1.6-2.7-3.5-3.5-5.6C285.8,75,285.3,72.8,285.3,70.3z"/>
	<path fill="#FFFFFF" d="M349.6,87.3h-2.2V68.5c0-8.9-3-13.3-8.9-13.3c-1.5,0-2.9,0.3-4.3,0.8c-1.4,0.6-2.7,1.3-4,2.3
		c-1.2,1-2.3,2.2-3.2,3.5c-0.9,1.4-1.6,2.8-2,4.4v21.1h-2.2V40h2.2v22c0.7-1.3,1.5-2.6,2.6-3.7c1-1.1,2.1-2,3.3-2.8
		c1.2-0.8,2.5-1.4,3.8-1.8c1.4-0.4,2.8-0.6,4.2-0.6c3.7,0,6.4,1.3,8.1,4c1.7,2.6,2.6,6.4,2.6,11.2V87.3z"/>
	<path fill="#FFFFFF" d="M373.5,88c-2.3,0-4.4-0.5-6.4-1.4c-2-0.9-3.7-2.2-5.2-3.8c-1.5-1.6-2.6-3.4-3.4-5.5
		c-0.8-2.1-1.2-4.3-1.2-6.7c0-2.4,0.4-4.6,1.3-6.7c0.8-2.1,2-4,3.5-5.6c1.5-1.6,3.2-2.9,5.2-3.8c2-0.9,4.1-1.4,6.3-1.4
		c2.2,0,4.4,0.5,6.4,1.4c2,0.9,3.7,2.2,5.2,3.8c1.5,1.6,2.6,3.5,3.5,5.6c0.8,2.1,1.3,4.4,1.3,6.7c0,2.3-0.4,4.6-1.3,6.7
		c-0.8,2.1-2,4-3.5,5.5c-1.5,1.6-3.2,2.8-5.2,3.8C377.8,87.5,375.7,88,373.5,88z M359.5,70.7c0,2.1,0.4,4,1.1,5.9
		c0.7,1.9,1.7,3.5,3,4.9c1.3,1.4,2.7,2.5,4.4,3.3c1.7,0.8,3.5,1.2,5.4,1.2c1.9,0,3.7-0.4,5.4-1.2c1.7-0.8,3.2-1.9,4.5-3.3
		c1.3-1.4,2.3-3,3-4.9c0.8-1.9,1.1-3.9,1.1-5.9c0-2.1-0.4-4.1-1.1-5.9c-0.8-1.9-1.8-3.5-3-4.9c-1.3-1.4-2.8-2.5-4.4-3.3
		c-1.7-0.8-3.5-1.2-5.4-1.2c-1.9,0-3.7,0.4-5.4,1.2c-1.7,0.8-3.2,1.9-4.4,3.3c-1.3,1.4-2.3,3-3,4.9
		C359.8,66.6,359.5,68.5,359.5,70.7z"/>
	<path fill="#FFFFFF" d="M424.1,41.4c-1.6,0-2.9,0.3-4,1c-1.1,0.7-2,1.5-2.7,2.6c-0.7,1.1-1.2,2.2-1.5,3.5c-0.3,1.3-0.5,2.6-0.5,3.8
		v5.2h11.6v1.9h-11.6v27.8h-2.2V59.5h-11.7v27.8h-2.2V59.5h-4.8v-1.9h4.8v-3.2c0-1.5,0.2-3,0.6-4.5c0.4-1.5,0.9-2.8,1.7-4
		c0.8-1.2,1.8-2.1,2.9-2.9c1.2-0.7,2.6-1.1,4.3-1.1s3.1,0.2,4.2,0.6c1.1,0.4,2,0.7,2.6,1.1c0.9-1.3,2-2.3,3.3-3.1
		c1.3-0.8,3-1.2,4.9-1.2c1.1,0,2.1,0.1,2.8,0.3c0.8,0.2,1.4,0.4,1.8,0.7c0.5,0.3,0.8,0.5,1,0.7c0.2,0.2,0.4,0.4,0.5,0.5l-1.1,1.4
		c-0.4-0.3-0.9-0.7-1.5-1C426.8,41.6,425.7,41.4,424.1,41.4z M413.3,52.5c0-1.1,0.1-2.3,0.4-3.6c0.3-1.3,0.7-2.4,1.2-3.5
		c-0.8-0.6-1.7-1-2.8-1.2c-1.1-0.2-2.1-0.3-2.9-0.3c-1.4,0-2.6,0.4-3.6,1.1c-1,0.7-1.7,1.6-2.3,2.6c-0.6,1-1,2.2-1.2,3.4
		c-0.2,1.2-0.4,2.3-0.4,3.3v3.2h11.7V52.5z"/>
</g>
<g>
	<path fill="#FFFFFF" d="M200.2,131.5v-19.6l-8.9,15.3h-1l-8.9-15.3v19.6h-1.6v-22.6h1.6l9.4,16.2l9.4-16.2h1.6v22.6H200.2z"/>
	<path fill="#FFFFFF" d="M214.3,131.8c-1.2,0-2.2-0.2-3.2-0.7c-1-0.5-1.9-1.1-2.6-1.9c-0.7-0.8-1.3-1.7-1.7-2.8
		c-0.4-1-0.6-2.2-0.6-3.3c0-1.2,0.2-2.3,0.6-3.3c0.4-1,1-1.9,1.7-2.7c0.7-0.8,1.6-1.4,2.6-1.8c1-0.4,2.1-0.7,3.2-0.7
		c1.2,0,2.2,0.2,3.2,0.7c1,0.5,1.8,1.1,2.6,1.8c0.7,0.8,1.3,1.7,1.7,2.7c0.4,1,0.6,2.1,0.6,3.3c0,0.1,0,0.2,0,0.4c0,0.2,0,0.3,0,0.3
		h-14.6c0.1,1,0.3,1.8,0.7,2.7c0.4,0.8,0.9,1.5,1.4,2.1s1.3,1.1,2,1.4c0.8,0.3,1.6,0.5,2.5,0.5c0.6,0,1.1-0.1,1.7-0.2
		c0.6-0.2,1.1-0.4,1.6-0.7s0.9-0.6,1.3-1c0.4-0.4,0.7-0.8,0.9-1.3l1.4,0.4c-0.3,0.6-0.6,1.1-1.1,1.6c-0.5,0.5-1,0.9-1.6,1.3
		c-0.6,0.4-1.3,0.6-2,0.8C215.8,131.7,215.1,131.8,214.3,131.8z M220.8,122.6c-0.1-1-0.3-1.9-0.7-2.7c-0.4-0.8-0.8-1.5-1.4-2.1
		c-0.6-0.6-1.3-1-2-1.4c-0.8-0.3-1.6-0.5-2.5-0.5c-0.9,0-1.7,0.2-2.5,0.5c-0.8,0.3-1.4,0.8-2,1.4c-0.6,0.6-1.1,1.3-1.4,2.1
		c-0.3,0.8-0.6,1.7-0.6,2.7H220.8z"/>
	<path fill="#FFFFFF" d="M232.7,131.8c-1.1,0-2.2-0.2-3.2-0.7c-1-0.5-1.8-1.1-2.5-1.9c-0.7-0.8-1.3-1.7-1.7-2.7
		c-0.4-1-0.6-2.1-0.6-3.2c0-1.1,0.2-2.2,0.6-3.3c0.4-1,0.9-2,1.6-2.7c0.7-0.8,1.5-1.4,2.4-1.9c0.9-0.5,1.9-0.7,3-0.7
		c0.7,0,1.4,0.1,2.1,0.3c0.6,0.2,1.2,0.5,1.8,0.8c0.5,0.4,1,0.8,1.5,1.2c0.4,0.5,0.8,1,1.1,1.5v-10.3h1.6v21c0,0.5,0.2,0.8,0.7,0.8
		v1.4c-0.1,0-0.2,0-0.3,0c-0.1,0-0.2,0-0.3,0c-0.5,0-0.8-0.1-1.1-0.4c-0.3-0.3-0.4-0.6-0.4-1v-1.9c-0.7,1.1-1.6,2-2.7,2.6
		C235.1,131.5,233.9,131.8,232.7,131.8z M233,130.4c0.6,0,1.2-0.1,1.8-0.3c0.7-0.2,1.3-0.6,1.8-1c0.6-0.4,1.1-0.9,1.4-1.4
		c0.4-0.5,0.6-1.1,0.7-1.7v-5.4c-0.2-0.6-0.6-1.2-1-1.7c-0.4-0.5-0.9-1-1.5-1.4c-0.6-0.4-1.1-0.7-1.8-0.9c-0.6-0.2-1.3-0.4-1.8-0.4
		c-1,0-1.8,0.2-2.6,0.6c-0.8,0.4-1.4,1-2,1.6c-0.6,0.7-1,1.4-1.3,2.3c-0.3,0.9-0.4,1.7-0.4,2.7c0,1,0.2,1.9,0.5,2.7
		c0.3,0.8,0.8,1.6,1.4,2.3c0.6,0.7,1.3,1.2,2.1,1.6C231.2,130.2,232.1,130.4,233,130.4z"/>
	<path fill="#FFFFFF" d="M245.5,111.2v-2.9h1.6v2.9H245.5z M245.5,131.5v-16.6h1.6v16.6H245.5z"/>
	<path fill="#FFFFFF" d="M259,131.8c-1.2,0-2.2-0.2-3.2-0.7c-1-0.5-1.9-1.1-2.6-1.9c-0.7-0.8-1.3-1.7-1.7-2.8
		c-0.4-1-0.6-2.2-0.6-3.3c0-1.2,0.2-2.3,0.6-3.3c0.4-1,1-1.9,1.7-2.7c0.7-0.8,1.6-1.4,2.6-1.8c1-0.4,2.1-0.7,3.2-0.7
		c1.2,0,2.2,0.2,3.2,0.7c1,0.5,1.8,1.1,2.6,1.8c0.7,0.8,1.3,1.7,1.7,2.7c0.4,1,0.6,2.1,0.6,3.3c0,0.1,0,0.2,0,0.4c0,0.2,0,0.3,0,0.3
		h-14.6c0.1,1,0.3,1.8,0.7,2.7c0.4,0.8,0.9,1.5,1.4,2.1s1.3,1.1,2,1.4c0.8,0.3,1.6,0.5,2.5,0.5c0.6,0,1.1-0.1,1.7-0.2
		c0.6-0.2,1.1-0.4,1.6-0.7s0.9-0.6,1.3-1c0.4-0.4,0.7-0.8,0.9-1.3l1.4,0.4c-0.3,0.6-0.6,1.1-1.1,1.6c-0.5,0.5-1,0.9-1.6,1.3
		c-0.6,0.4-1.3,0.6-2,0.8C260.5,131.7,259.8,131.8,259,131.8z M265.5,122.6c-0.1-1-0.3-1.9-0.7-2.7c-0.4-0.8-0.8-1.5-1.4-2.1
		c-0.6-0.6-1.3-1-2-1.4c-0.8-0.3-1.6-0.5-2.5-0.5c-0.9,0-1.7,0.2-2.5,0.5c-0.8,0.3-1.4,0.8-2,1.4c-0.6,0.6-1.1,1.3-1.4,2.1
		c-0.3,0.8-0.6,1.7-0.6,2.7H265.5z"/>
	<path fill="#FFFFFF" d="M284.1,131.5h-1.6v-9.2c0-2.1-0.3-3.7-0.9-4.7c-0.6-1-1.6-1.5-2.9-1.5c-0.7,0-1.4,0.1-2.1,0.4
		c-0.7,0.3-1.3,0.6-1.9,1.1c-0.6,0.5-1.1,1-1.5,1.6c-0.4,0.6-0.8,1.3-1,2v10.3h-1.6v-16.6h1.5v3.9c0.3-0.6,0.8-1.2,1.3-1.7
		c0.5-0.5,1.1-1,1.7-1.3c0.6-0.4,1.3-0.7,2-0.9c0.7-0.2,1.4-0.3,2.2-0.3c1.8,0,3.1,0.6,3.8,1.9c0.7,1.3,1.1,3.1,1.1,5.4V131.5z"/>
	<path fill="#999999" d="M288.8,111.2v-2.9h1.6v2.9H288.8z M288.8,131.5v-16.6h1.6v16.6H288.8z"/>
	<path fill="#999999" d="M308.8,131.5h-1.6v-9.2c0-2.1-0.3-3.7-0.9-4.7s-1.6-1.5-2.9-1.5c-0.7,0-1.4,0.1-2.1,0.4
		c-0.7,0.3-1.3,0.6-1.9,1.1c-0.6,0.5-1.1,1-1.5,1.6c-0.4,0.6-0.8,1.3-1,2v10.3h-1.6v-16.6h1.5v3.9c0.3-0.6,0.8-1.2,1.3-1.7
		c0.5-0.5,1.1-1,1.7-1.3c0.6-0.4,1.3-0.7,2-0.9c0.7-0.2,1.4-0.3,2.2-0.3c1.8,0,3.1,0.6,3.8,1.9c0.7,1.3,1.1,3.1,1.1,5.4V131.5z"/>
	<path fill="#999999" d="M314.4,131.5v-13.3h-2.3v-1.3h2.3v-2.5c0-2,0.4-3.6,1.3-4.8c0.8-1.1,2-1.7,3.5-1.7c0.6,0,1.2,0.1,1.8,0.3
		c0.6,0.2,1.1,0.4,1.5,0.8l-0.6,1.1c-0.3-0.2-0.7-0.4-1.1-0.6c-0.4-0.1-0.9-0.2-1.4-0.2c-1.1,0-1.9,0.4-2.5,1.3
		c-0.6,0.9-0.9,2.1-0.9,3.7v2.5h4.7v1.3H316v13.3H314.4z"/>
	<path fill="#999999" d="M331,131.8c-1.2,0-2.2-0.2-3.2-0.7c-1-0.5-1.8-1.1-2.6-1.9c-0.7-0.8-1.3-1.7-1.7-2.7
		c-0.4-1-0.6-2.1-0.6-3.3c0-1.2,0.2-2.3,0.6-3.3c0.4-1,1-2,1.7-2.7c0.7-0.8,1.6-1.4,2.6-1.9c1-0.5,2-0.7,3.2-0.7s2.2,0.2,3.2,0.7
		c1,0.5,1.8,1.1,2.6,1.9c0.7,0.8,1.3,1.7,1.7,2.7c0.4,1,0.6,2.1,0.6,3.3c0,1.1-0.2,2.2-0.6,3.3c-0.4,1-1,2-1.7,2.7
		c-0.7,0.8-1.6,1.4-2.6,1.9C333.2,131.6,332.1,131.8,331,131.8z M324.5,123.3c0,1,0.2,1.9,0.5,2.8c0.3,0.9,0.8,1.6,1.4,2.2
		c0.6,0.6,1.3,1.1,2.1,1.5c0.8,0.4,1.6,0.6,2.5,0.6c0.9,0,1.7-0.2,2.5-0.6c0.8-0.4,1.5-0.9,2.1-1.5c0.6-0.7,1.1-1.4,1.4-2.3
		c0.3-0.9,0.5-1.8,0.5-2.8c0-1-0.2-1.9-0.5-2.8c-0.4-0.9-0.8-1.6-1.4-2.3c-0.6-0.6-1.3-1.2-2.1-1.5c-0.8-0.4-1.6-0.6-2.5-0.6
		c-0.9,0-1.7,0.2-2.5,0.6s-1.5,0.9-2.1,1.6c-0.6,0.7-1.1,1.4-1.4,2.3C324.7,121.4,324.5,122.3,324.5,123.3z"/>
	<path fill="#999999" d="M350.7,116.3c-1.5,0-2.8,0.5-3.9,1.3c-1.1,0.8-1.9,2-2.3,3.5v10.3h-1.6v-16.6h1.5v4.1
		c0.6-1.2,1.3-2.1,2.3-2.9s2-1.2,3-1.3c0.2,0,0.4,0,0.6,0c0.2,0,0.3,0,0.4,0V116.3z"/>
	<path fill="#999999" d="M378,131.5h-1.6v-9.2c0-2.1-0.3-3.7-1-4.6c-0.6-1-1.6-1.5-3-1.5c-0.7,0-1.4,0.1-2,0.4
		c-0.6,0.3-1.2,0.6-1.7,1.1c-0.5,0.5-0.9,1-1.3,1.6c-0.4,0.6-0.7,1.3-0.9,2.1v10.2h-1.6v-9.2c0-2.1-0.3-3.7-1-4.7
		c-0.6-1-1.6-1.5-3-1.5c-0.7,0-1.3,0.1-1.9,0.4c-0.6,0.2-1.2,0.6-1.7,1.1c-0.5,0.5-1,1-1.3,1.6c-0.4,0.6-0.7,1.3-0.9,2.1v10.3h-1.6
		v-16.6h1.5v3.9c0.7-1.3,1.6-2.4,2.7-3.1c1.1-0.7,2.3-1.1,3.7-1.1c1.4,0,2.5,0.4,3.4,1.2c0.9,0.8,1.4,1.9,1.5,3.2
		c1.6-3,3.8-4.5,6.5-4.5c1.8,0,3.1,0.6,3.9,1.9c0.8,1.3,1.2,3.1,1.2,5.4V131.5z"/>
	<path fill="#999999" d="M386.9,131.8c-0.8,0-1.5-0.1-2.2-0.4c-0.7-0.3-1.3-0.6-1.8-1.1c-0.5-0.5-0.9-1-1.2-1.6
		c-0.3-0.6-0.4-1.3-0.4-2c0-0.7,0.2-1.4,0.5-2c0.3-0.6,0.8-1.1,1.4-1.5c0.6-0.4,1.3-0.8,2.2-1c0.8-0.2,1.8-0.4,2.8-0.4
		c0.9,0,1.8,0.1,2.7,0.2c0.9,0.2,1.7,0.4,2.5,0.7V121c0-1.6-0.4-2.8-1.3-3.7c-0.9-0.9-2.1-1.4-3.6-1.4c-0.8,0-1.7,0.2-2.6,0.5
		c-0.9,0.3-1.8,0.8-2.7,1.5l-0.6-1.1c2.1-1.4,4.2-2.2,6.1-2.2c2,0,3.6,0.6,4.7,1.7c1.2,1.2,1.7,2.8,1.7,4.8v8.1
		c0,0.5,0.2,0.8,0.7,0.8v1.4c-0.1,0-0.2,0-0.3,0c-0.1,0-0.2,0-0.3,0c-0.4,0-0.7-0.1-1.1-0.4c-0.3-0.3-0.5-0.6-0.5-1v-1.4
		c-0.8,1-1.7,1.8-2.9,2.3C389.5,131.5,388.2,131.8,386.9,131.8z M387.2,130.5c1.2,0,2.4-0.2,3.4-0.7c1-0.5,1.8-1.1,2.3-1.9
		c0.4-0.4,0.5-0.8,0.5-1.3v-2.9c-1.6-0.6-3.3-0.9-5-0.9c-1.7,0-3,0.3-4,1c-1,0.7-1.5,1.6-1.5,2.7c0,0.6,0.1,1.1,0.3,1.6
		c0.2,0.5,0.5,0.9,0.9,1.3c0.4,0.4,0.8,0.6,1.4,0.8C386,130.4,386.6,130.5,387.2,130.5z"/>
	<path fill="#999999" d="M407.1,130.7c-0.1,0-0.2,0.1-0.4,0.2c-0.2,0.1-0.5,0.2-0.8,0.3c-0.3,0.1-0.7,0.2-1,0.3
		c-0.4,0.1-0.8,0.1-1.2,0.1c-0.4,0-0.9-0.1-1.3-0.2c-0.4-0.1-0.7-0.3-1-0.6s-0.5-0.6-0.7-0.9c-0.2-0.4-0.3-0.8-0.3-1.3v-12.5h-2.3
		v-1.3h2.3v-5.7h1.6v5.7h3.9v1.3H402v12.1c0,0.6,0.2,1.1,0.6,1.4c0.4,0.3,0.9,0.5,1.5,0.5c0.7,0,1.2-0.1,1.7-0.3
		c0.5-0.2,0.8-0.4,0.9-0.4L407.1,130.7z"/>
	<path fill="#999999" d="M409.8,111.2v-2.9h1.6v2.9H409.8z M409.8,131.5v-16.6h1.6v16.6H409.8z"/>
	<path fill="#999999" d="M428.3,131.5l-6.5-8.9l-3.9,3.6v5.3h-1.6v-23.2h1.6v16.2l10.1-9.5h1.8l-6.9,6.7l7.2,9.8H428.3z"/>
</g>
<g>
	<rect x="179.7" y="11.9" fill="#FFFFFF" width="2.2" height="76.7"/>
	<polygon fill="#FFFFFF" points="180.8,48.7 218.9,48.7 217.5,49.8 215,50.9 180.8,50.9 	"/>
	<polygon fill="#FFFFFF" points="179.7,86.4 217.8,86.4 217.4,88 215.9,88.6 179.7,88.6 	"/>
	<rect x="179.7" y="11.9" fill="#FFFFFF" width="34.9" height="2.2"/>
	<path fill="#FFFFFF" d="M214.6,11.9C214.6,11.9,214.6,11.9,214.6,11.9l-0.8,1c0,0,0.7,1.2,0.8,1.2c8.6,0,15.2,7.7,15.2,17.3
		c0,9.6-6.6,17.3-15.1,17.3c0,0-2.3,0.8-2.3,0.8l2.3,1.4c0,0,0,0,0.1,0c9.6,0,17.4-8.7,17.4-19.5C232,20.6,224.2,11.9,214.6,11.9z"
		/>
	<path fill="#FFFFFF" d="M215.9,48.6l-0.9,2.3c9.6,0.3,18.2,8.1,18.2,17.7s-7.7,17.6-17.3,17.8v2.2c10.9-0.3,19.8-9.1,19.8-20
		C235.6,57.7,226.8,48.9,215.9,48.6z"/>
</g>
</svg>
